# Architect Intelligence Platform - Scheme A
# 1080 vertices, 1620 triangles

o ground
v 0.0000 -0.3500 0.0000
v 12.0000 -0.3500 0.0000
v 12.0000 -0.3500 -18.0000
v 0.0000 -0.3500 -18.0000
v 0.0000 0.0000 0.0000
v 12.0000 0.0000 0.0000
v 12.0000 0.0000 -18.0000
v 0.0000 0.0000 -18.0000
f 1 3 2
f 5 6 7
f 1 4 3
f 5 7 8
f 1 2 6
f 1 6 5
f 2 3 7
f 2 7 6
f 3 4 8
f 3 8 7
f 4 1 5
f 4 5 8

o slab_L0
v 1.5347 -0.1500 -1.7440
v 10.4653 -0.1500 -1.7440
v 10.4653 -0.1500 -16.2560
v 1.5347 -0.1500 -16.2560
v 1.5347 0.0000 -1.7440
v 10.4653 0.0000 -1.7440
v 10.4653 0.0000 -16.2560
v 1.5347 0.0000 -16.2560
f 9 11 10
f 13 14 15
f 9 12 11
f 13 15 16
f 9 10 14
f 9 14 13
f 10 11 15
f 10 15 14
f 11 12 16
f 11 16 15
f 12 9 13
f 12 13 16

o floor_rm_cad2e3997f
v 1.5347 0.0000 -1.7440
v 5.7824 0.0000 -1.7440
v 5.7824 0.0000 -5.8198
v 1.5347 0.0000 -5.8198
v 1.5347 0.0200 -1.7440
v 5.7824 0.0200 -1.7440
v 5.7824 0.0200 -5.8198
v 1.5347 0.0200 -5.8198
f 17 19 18
f 21 22 23
f 17 20 19
f 21 23 24
f 17 18 22
f 17 22 21
f 18 19 23
f 18 23 22
f 19 20 24
f 19 24 23
f 20 17 21
f 20 21 24

o floor_rm_b972fdaea3
v 5.7824 0.0000 -9.2285
v 10.4653 0.0000 -9.2285
v 10.4653 0.0000 -12.1807
v 5.7824 0.0000 -12.1807
v 5.7824 0.0200 -9.2285
v 10.4653 0.0200 -9.2285
v 10.4653 0.0200 -12.1807
v 5.7824 0.0200 -12.1807
f 25 27 26
f 29 30 31
f 25 28 27
f 29 31 32
f 25 26 30
f 25 30 29
f 26 27 31
f 26 31 30
f 27 28 32
f 27 32 31
f 28 25 29
f 28 29 32

o floor_rm_8cf6516aba
v 5.7824 0.0000 -1.7440
v 8.4328 0.0000 -1.7440
v 8.4328 0.0000 -6.6461
v 5.7824 0.0000 -6.6461
v 5.7824 0.0200 -1.7440
v 8.4328 0.0200 -1.7440
v 8.4328 0.0200 -6.6461
v 5.7824 0.0200 -6.6461
f 33 35 34
f 37 38 39
f 33 36 35
f 37 39 40
f 33 34 38
f 33 38 37
f 34 35 39
f 34 39 38
f 35 36 40
f 35 40 39
f 36 33 37
f 36 37 40

o floor_rm_357e2ac058
v 1.5347 0.0000 -11.0379
v 5.7824 0.0000 -11.0379
v 5.7824 0.0000 -16.2560
v 1.5347 0.0000 -16.2560
v 1.5347 0.0200 -11.0379
v 5.7824 0.0200 -11.0379
v 5.7824 0.0200 -16.2560
v 1.5347 0.0200 -16.2560
f 41 43 42
f 45 46 47
f 41 44 43
f 45 47 48
f 41 42 46
f 41 46 45
f 42 43 47
f 42 47 46
f 43 44 48
f 43 48 47
f 44 41 45
f 44 45 48

o floor_rm_b0f0a32b63
v 1.5347 0.0000 -8.4289
v 5.7824 0.0000 -8.4289
v 5.7824 0.0000 -11.0379
v 1.5347 0.0000 -11.0379
v 1.5347 0.0200 -8.4289
v 5.7824 0.0200 -8.4289
v 5.7824 0.0200 -11.0379
v 1.5347 0.0200 -11.0379
f 49 51 50
f 53 54 55
f 49 52 51
f 53 55 56
f 49 50 54
f 49 54 53
f 50 51 55
f 50 55 54
f 51 52 56
f 51 56 55
f 52 49 53
f 52 53 56

o floor_rm_760b296b26
v 5.7824 0.0000 -12.1807
v 10.4653 0.0000 -12.1807
v 10.4653 0.0000 -16.2560
v 5.7824 0.0000 -16.2560
v 5.7824 0.0200 -12.1807
v 10.4653 0.0200 -12.1807
v 10.4653 0.0200 -16.2560
v 5.7824 0.0200 -16.2560
f 57 59 58
f 61 62 63
f 57 60 59
f 61 63 64
f 57 58 62
f 57 62 61
f 58 59 63
f 58 63 62
f 59 60 64
f 59 64 63
f 60 57 61
f 60 61 64

o floor_rm_88ca2ab936
v 8.4328 0.0000 -4.0599
v 10.4653 0.0000 -4.0599
v 10.4653 0.0000 -6.6461
v 8.4328 0.0000 -6.6461
v 8.4328 0.0200 -4.0599
v 10.4653 0.0200 -4.0599
v 10.4653 0.0200 -6.6461
v 8.4328 0.0200 -6.6461
f 65 67 66
f 69 70 71
f 65 68 67
f 69 71 72
f 65 66 70
f 65 70 69
f 66 67 71
f 66 71 70
f 67 68 72
f 67 72 71
f 68 65 69
f 68 69 72

o floor_rm_a0c93ac123
v 7.7473 0.0000 -6.6461
v 10.4653 0.0000 -6.6461
v 10.4653 0.0000 -9.2285
v 7.7473 0.0000 -9.2285
v 7.7473 0.0200 -6.6461
v 10.4653 0.0200 -6.6461
v 10.4653 0.0200 -9.2285
v 7.7473 0.0200 -9.2285
f 73 75 74
f 77 78 79
f 73 76 75
f 77 79 80
f 73 74 78
f 73 78 77
f 74 75 79
f 74 79 78
f 75 76 80
f 75 80 79
f 76 73 77
f 76 77 80

o floor_rm_cd81f93f9f
v 5.7824 0.0000 -6.6461
v 7.7473 0.0000 -6.6461
v 7.7473 0.0000 -9.2285
v 5.7824 0.0000 -9.2285
v 5.7824 0.0200 -6.6461
v 7.7473 0.0200 -6.6461
v 7.7473 0.0200 -9.2285
v 5.7824 0.0200 -9.2285
f 81 83 82
f 85 86 87
f 81 84 83
f 85 87 88
f 81 82 86
f 81 86 85
f 82 83 87
f 82 87 86
f 83 84 88
f 83 88 87
f 84 81 85
f 84 85 88

o floor_rm_54c8832b5d
v 8.4328 0.0000 -1.7440
v 10.4653 0.0000 -1.7440
v 10.4653 0.0000 -4.0599
v 8.4328 0.0000 -4.0599
v 8.4328 0.0200 -1.7440
v 10.4653 0.0200 -1.7440
v 10.4653 0.0200 -4.0599
v 8.4328 0.0200 -4.0599
f 89 91 90
f 93 94 95
f 89 92 91
f 93 95 96
f 89 90 94
f 89 94 93
f 90 91 95
f 90 95 94
f 91 92 96
f 91 96 95
f 92 89 93
f 92 93 96

o floor_rm_cf71418dac
v 1.5347 0.0000 -5.8198
v 5.7824 0.0000 -5.8198
v 5.7824 0.0000 -8.4289
v 1.5347 0.0000 -8.4289
v 1.5347 0.0200 -5.8198
v 5.7824 0.0200 -5.8198
v 5.7824 0.0200 -8.4289
v 1.5347 0.0200 -8.4289
f 97 99 98
f 101 102 103
f 97 100 99
f 101 103 104
f 97 98 102
f 97 102 101
f 98 99 103
f 98 103 102
f 99 100 104
f 99 104 103
f 100 97 101
f 100 101 104

o wall_wal_564564dc99_13
v 1.5347 0.0000 -1.8590
v 2.9461 0.0000 -1.8590
v 2.9461 3.0000 -1.8590
v 1.5347 3.0000 -1.8590
v 1.5347 0.0000 -1.6290
v 2.9461 0.0000 -1.6290
v 2.9461 3.0000 -1.6290
v 1.5347 3.0000 -1.6290
f 105 107 106
f 105 108 107
f 109 110 111
f 109 111 112
f 105 106 110
f 105 110 109
f 108 112 111
f 108 111 107
f 105 109 112
f 105 112 108
f 106 107 111
f 106 111 110

o wall_wal_564564dc99_14
v 2.9461 0.0000 -1.8590
v 4.3711 0.0000 -1.8590
v 4.3711 0.9000 -1.8590
v 2.9461 0.9000 -1.8590
v 2.9461 0.0000 -1.6290
v 4.3711 0.0000 -1.6290
v 4.3711 0.9000 -1.6290
v 2.9461 0.9000 -1.6290
f 113 115 114
f 113 116 115
f 117 118 119
f 117 119 120
f 113 114 118
f 113 118 117
f 116 120 119
f 116 119 115
f 113 117 120
f 113 120 116
f 114 115 119
f 114 119 118

o wall_wal_564564dc99_15
v 2.9461 2.2500 -1.8590
v 4.3711 2.2500 -1.8590
v 4.3711 3.0000 -1.8590
v 2.9461 3.0000 -1.8590
v 2.9461 2.2500 -1.6290
v 4.3711 2.2500 -1.6290
v 4.3711 3.0000 -1.6290
v 2.9461 3.0000 -1.6290
f 121 123 122
f 121 124 123
f 125 126 127
f 125 127 128
f 121 122 126
f 121 126 125
f 124 128 127
f 124 127 123
f 121 125 128
f 121 128 124
f 122 123 127
f 122 127 126

o glazing_opn_ff02143f76
v 2.9461 0.9000 -1.7640
v 4.3711 0.9000 -1.7640
v 4.3711 2.2500 -1.7640
v 2.9461 2.2500 -1.7640
v 2.9461 0.9000 -1.7240
v 4.3711 0.9000 -1.7240
v 4.3711 2.2500 -1.7240
v 2.9461 2.2500 -1.7240
f 129 131 130
f 129 132 131
f 133 134 135
f 133 135 136
f 129 130 134
f 129 134 133
f 132 136 135
f 132 135 131
f 129 133 136
f 129 136 132
f 130 131 135
f 130 135 134

o wall_wal_564564dc99_17
v 4.3711 0.0000 -1.8590
v 5.7824 0.0000 -1.8590
v 5.7824 3.0000 -1.8590
v 4.3711 3.0000 -1.8590
v 4.3711 0.0000 -1.6290
v 5.7824 0.0000 -1.6290
v 5.7824 3.0000 -1.6290
v 4.3711 3.0000 -1.6290
f 137 139 138
f 137 140 139
f 141 142 143
f 141 143 144
f 137 138 142
f 137 142 141
f 140 144 143
f 140 143 139
f 137 141 144
f 137 144 140
f 138 139 143
f 138 143 142

o wall_wal_b4bd2de4e6_18
v 5.8399 0.0000 -5.8198
v 5.8399 0.0000 -1.7440
v 5.8399 3.0000 -1.7440
v 5.8399 3.0000 -5.8198
v 5.7249 0.0000 -5.8198
v 5.7249 0.0000 -1.7440
v 5.7249 3.0000 -1.7440
v 5.7249 3.0000 -5.8198
f 145 147 146
f 145 148 147
f 149 150 151
f 149 151 152
f 145 146 150
f 145 150 149
f 148 152 151
f 148 151 147
f 145 149 152
f 145 152 148
f 146 147 151
f 146 151 150

o wall_wal_4564257e6a_19
v 5.7824 0.0000 -5.7623
v 4.1836 0.0000 -5.7623
v 4.1836 3.0000 -5.7623
v 5.7824 3.0000 -5.7623
v 5.7824 0.0000 -5.8773
v 4.1836 0.0000 -5.8773
v 4.1836 3.0000 -5.8773
v 5.7824 3.0000 -5.8773
f 153 155 154
f 153 156 155
f 157 158 159
f 157 159 160
f 153 154 158
f 153 158 157
f 156 160 159
f 156 159 155
f 153 157 160
f 153 160 156
f 154 155 159
f 154 159 158

o wall_wal_4564257e6a_20
v 4.1836 2.1000 -5.7623
v 3.1336 2.1000 -5.7623
v 3.1336 3.0000 -5.7623
v 4.1836 3.0000 -5.7623
v 4.1836 2.1000 -5.8773
v 3.1336 2.1000 -5.8773
v 3.1336 3.0000 -5.8773
v 4.1836 3.0000 -5.8773
f 161 163 162
f 161 164 163
f 165 166 167
f 165 167 168
f 161 162 166
f 161 166 165
f 164 168 167
f 164 167 163
f 161 165 168
f 161 168 164
f 162 163 167
f 162 167 166

o door_opn_4f9e8d15d3
v 4.1836 0.0000 -5.7998
v 3.1336 0.0000 -5.7998
v 3.1336 2.1000 -5.7998
v 4.1836 2.1000 -5.7998
v 4.1836 0.0000 -5.8398
v 3.1336 0.0000 -5.8398
v 3.1336 2.1000 -5.8398
v 4.1836 2.1000 -5.8398
f 169 171 170
f 169 172 171
f 173 174 175
f 173 175 176
f 169 170 174
f 169 174 173
f 172 176 175
f 172 175 171
f 169 173 176
f 169 176 172
f 170 171 175
f 170 175 174

o wall_wal_4564257e6a_22
v 3.1336 0.0000 -5.7623
v 1.5347 0.0000 -5.7623
v 1.5347 3.0000 -5.7623
v 3.1336 3.0000 -5.7623
v 3.1336 0.0000 -5.8773
v 1.5347 0.0000 -5.8773
v 1.5347 3.0000 -5.8773
v 3.1336 3.0000 -5.8773
f 177 179 178
f 177 180 179
f 181 182 183
f 181 183 184
f 177 178 182
f 177 182 181
f 180 184 183
f 180 183 179
f 177 181 184
f 177 184 180
f 178 179 183
f 178 183 182

o wall_wal_64cf463f72_23
v 1.4197 0.0000 -4.4944
v 1.4197 0.0000 -5.8198
v 1.4197 3.0000 -5.8198
v 1.4197 3.0000 -4.4944
v 1.6497 0.0000 -4.4944
v 1.6497 0.0000 -5.8198
v 1.6497 3.0000 -5.8198
v 1.6497 3.0000 -4.4944
f 185 187 186
f 185 188 187
f 189 190 191
f 189 191 192
f 185 186 190
f 185 190 189
f 188 192 191
f 188 191 187
f 185 189 192
f 185 192 188
f 186 187 191
f 186 191 190

o wall_wal_64cf463f72_24
v 1.4197 0.0000 -3.0694
v 1.4197 0.0000 -4.4944
v 1.4197 0.9000 -4.4944
v 1.4197 0.9000 -3.0694
v 1.6497 0.0000 -3.0694
v 1.6497 0.0000 -4.4944
v 1.6497 0.9000 -4.4944
v 1.6497 0.9000 -3.0694
f 193 195 194
f 193 196 195
f 197 198 199
f 197 199 200
f 193 194 198
f 193 198 197
f 196 200 199
f 196 199 195
f 193 197 200
f 193 200 196
f 194 195 199
f 194 199 198

o wall_wal_64cf463f72_25
v 1.4197 2.2500 -3.0694
v 1.4197 2.2500 -4.4944
v 1.4197 3.0000 -4.4944
v 1.4197 3.0000 -3.0694
v 1.6497 2.2500 -3.0694
v 1.6497 2.2500 -4.4944
v 1.6497 3.0000 -4.4944
v 1.6497 3.0000 -3.0694
f 201 203 202
f 201 204 203
f 205 206 207
f 205 207 208
f 201 202 206
f 201 206 205
f 204 208 207
f 204 207 203
f 201 205 208
f 201 208 204
f 202 203 207
f 202 207 206

o glazing_opn_ea52ca1412
v 1.5147 0.9000 -3.0694
v 1.5147 0.9000 -4.4944
v 1.5147 2.2500 -4.4944
v 1.5147 2.2500 -3.0694
v 1.5547 0.9000 -3.0694
v 1.5547 0.9000 -4.4944
v 1.5547 2.2500 -4.4944
v 1.5547 2.2500 -3.0694
f 209 211 210
f 209 212 211
f 213 214 215
f 213 215 216
f 209 210 214
f 209 214 213
f 212 216 215
f 212 215 211
f 209 213 216
f 209 216 212
f 210 211 215
f 210 215 214

o wall_wal_64cf463f72_27
v 1.4197 0.0000 -1.7440
v 1.4197 0.0000 -3.0694
v 1.4197 3.0000 -3.0694
v 1.4197 3.0000 -1.7440
v 1.6497 0.0000 -1.7440
v 1.6497 0.0000 -3.0694
v 1.6497 3.0000 -3.0694
v 1.6497 3.0000 -1.7440
f 217 219 218
f 217 220 219
f 221 222 223
f 221 223 224
f 217 218 222
f 217 222 221
f 220 224 223
f 220 223 219
f 217 221 224
f 217 224 220
f 218 219 223
f 218 223 222

o wall_wal_498bb45629_28
v 5.7824 0.0000 -9.2860
v 10.4653 0.0000 -9.2860
v 10.4653 3.0000 -9.2860
v 5.7824 3.0000 -9.2860
v 5.7824 0.0000 -9.1710
v 10.4653 0.0000 -9.1710
v 10.4653 3.0000 -9.1710
v 5.7824 3.0000 -9.1710
f 225 227 226
f 225 228 227
f 229 230 231
f 229 231 232
f 225 226 230
f 225 230 229
f 228 232 231
f 228 231 227
f 225 229 232
f 225 232 228
f 226 227 231
f 226 231 230

o wall_wal_a9c4d140da_29
v 10.5803 0.0000 -9.5666
v 10.5803 0.0000 -9.2285
v 10.5803 3.0000 -9.2285
v 10.5803 3.0000 -9.5666
v 10.3503 0.0000 -9.5666
v 10.3503 0.0000 -9.2285
v 10.3503 3.0000 -9.2285
v 10.3503 3.0000 -9.5666
f 233 235 234
f 233 236 235
f 237 238 239
f 237 239 240
f 233 234 238
f 233 238 237
f 236 240 239
f 236 239 235
f 233 237 240
f 233 240 236
f 234 235 239
f 234 239 238

o wall_wal_a9c4d140da_30
v 10.5803 0.0000 -11.8426
v 10.5803 0.0000 -9.5666
v 10.5803 0.9000 -9.5666
v 10.5803 0.9000 -11.8426
v 10.3503 0.0000 -11.8426
v 10.3503 0.0000 -9.5666
v 10.3503 0.9000 -9.5666
v 10.3503 0.9000 -11.8426
f 241 243 242
f 241 244 243
f 245 246 247
f 245 247 248
f 241 242 246
f 241 246 245
f 244 248 247
f 244 247 243
f 241 245 248
f 241 248 244
f 242 243 247
f 242 247 246

o wall_wal_a9c4d140da_31
v 10.5803 2.2500 -11.8426
v 10.5803 2.2500 -9.5666
v 10.5803 3.0000 -9.5666
v 10.5803 3.0000 -11.8426
v 10.3503 2.2500 -11.8426
v 10.3503 2.2500 -9.5666
v 10.3503 3.0000 -9.5666
v 10.3503 3.0000 -11.8426
f 249 251 250
f 249 252 251
f 253 254 255
f 253 255 256
f 249 250 254
f 249 254 253
f 252 256 255
f 252 255 251
f 249 253 256
f 249 256 252
f 250 251 255
f 250 255 254

o glazing_opn_952bf61aaf
v 10.4853 0.9000 -11.8426
v 10.4853 0.9000 -9.5666
v 10.4853 2.2500 -9.5666
v 10.4853 2.2500 -11.8426
v 10.4453 0.9000 -11.8426
v 10.4453 0.9000 -9.5666
v 10.4453 2.2500 -9.5666
v 10.4453 2.2500 -11.8426
f 257 259 258
f 257 260 259
f 261 262 263
f 261 263 264
f 257 258 262
f 257 262 261
f 260 264 263
f 260 263 259
f 257 261 264
f 257 264 260
f 258 259 263
f 258 263 262

o wall_wal_a9c4d140da_33
v 10.5803 0.0000 -12.1807
v 10.5803 0.0000 -11.8426
v 10.5803 3.0000 -11.8426
v 10.5803 3.0000 -12.1807
v 10.3503 0.0000 -12.1807
v 10.3503 0.0000 -11.8426
v 10.3503 3.0000 -11.8426
v 10.3503 3.0000 -12.1807
f 265 267 266
f 265 268 267
f 269 270 271
f 269 271 272
f 265 266 270
f 265 270 269
f 268 272 271
f 268 271 267
f 265 269 272
f 265 272 268
f 266 267 271
f 266 271 270

o wall_wal_7893a69447_34
v 10.4653 0.0000 -12.1232
v 8.6488 0.0000 -12.1232
v 8.6488 3.0000 -12.1232
v 10.4653 3.0000 -12.1232
v 10.4653 0.0000 -12.2382
v 8.6488 0.0000 -12.2382
v 8.6488 3.0000 -12.2382
v 10.4653 3.0000 -12.2382
f 273 275 274
f 273 276 275
f 277 278 279
f 277 279 280
f 273 274 278
f 273 278 277
f 276 280 279
f 276 279 275
f 273 277 280
f 273 280 276
f 274 275 279
f 274 279 278

o wall_wal_7893a69447_35
v 8.6488 2.1000 -12.1232
v 7.5988 2.1000 -12.1232
v 7.5988 3.0000 -12.1232
v 8.6488 3.0000 -12.1232
v 8.6488 2.1000 -12.2382
v 7.5988 2.1000 -12.2382
v 7.5988 3.0000 -12.2382
v 8.6488 3.0000 -12.2382
f 281 283 282
f 281 284 283
f 285 286 287
f 285 287 288
f 281 282 286
f 281 286 285
f 284 288 287
f 284 287 283
f 281 285 288
f 281 288 284
f 282 283 287
f 282 287 286

o door_opn_39c14a4c45
v 8.6488 0.0000 -12.1607
v 7.5988 0.0000 -12.1607
v 7.5988 2.1000 -12.1607
v 8.6488 2.1000 -12.1607
v 8.6488 0.0000 -12.2007
v 7.5988 0.0000 -12.2007
v 7.5988 2.1000 -12.2007
v 8.6488 2.1000 -12.2007
f 289 291 290
f 289 292 291
f 293 294 295
f 293 295 296
f 289 290 294
f 289 294 293
f 292 296 295
f 292 295 291
f 289 293 296
f 289 296 292
f 290 291 295
f 290 295 294

o wall_wal_7893a69447_37
v 7.5988 0.0000 -12.1232
v 5.7824 0.0000 -12.1232
v 5.7824 3.0000 -12.1232
v 7.5988 3.0000 -12.1232
v 7.5988 0.0000 -12.2382
v 5.7824 0.0000 -12.2382
v 5.7824 3.0000 -12.2382
v 7.5988 3.0000 -12.2382
f 297 299 298
f 297 300 299
f 301 302 303
f 301 303 304
f 297 298 302
f 297 302 301
f 300 304 303
f 300 303 299
f 297 301 304
f 297 304 300
f 298 299 303
f 298 303 302

o wall_wal_16aad44798_38
v 5.7249 0.0000 -9.2285
v 5.7249 0.0000 -12.1807
v 5.7249 3.0000 -12.1807
v 5.7249 3.0000 -9.2285
v 5.8399 0.0000 -9.2285
v 5.8399 0.0000 -12.1807
v 5.8399 3.0000 -12.1807
v 5.8399 3.0000 -9.2285
f 305 307 306
f 305 308 307
f 309 310 311
f 309 311 312
f 305 306 310
f 305 310 309
f 308 312 311
f 308 311 307
f 305 309 312
f 305 312 308
f 306 307 311
f 306 311 310

o wall_wal_9ca28c42b3_39
v 5.7824 0.0000 -1.8590
v 6.0826 0.0000 -1.8590
v 6.0826 3.0000 -1.8590
v 5.7824 3.0000 -1.8590
v 5.7824 0.0000 -1.6290
v 6.0826 0.0000 -1.6290
v 6.0826 3.0000 -1.6290
v 5.7824 3.0000 -1.6290
f 313 315 314
f 313 316 315
f 317 318 319
f 317 319 320
f 313 314 318
f 313 318 317
f 316 320 319
f 316 319 315
f 313 317 320
f 313 320 316
f 314 315 319
f 314 319 318

o wall_wal_9ca28c42b3_40
v 6.0826 0.0000 -1.8590
v 8.1326 0.0000 -1.8590
v 8.1326 0.9000 -1.8590
v 6.0826 0.9000 -1.8590
v 6.0826 0.0000 -1.6290
v 8.1326 0.0000 -1.6290
v 8.1326 0.9000 -1.6290
v 6.0826 0.9000 -1.6290
f 321 323 322
f 321 324 323
f 325 326 327
f 325 327 328
f 321 322 326
f 321 326 325
f 324 328 327
f 324 327 323
f 321 325 328
f 321 328 324
f 322 323 327
f 322 327 326

o wall_wal_9ca28c42b3_41
v 6.0826 2.2500 -1.8590
v 8.1326 2.2500 -1.8590
v 8.1326 3.0000 -1.8590
v 6.0826 3.0000 -1.8590
v 6.0826 2.2500 -1.6290
v 8.1326 2.2500 -1.6290
v 8.1326 3.0000 -1.6290
v 6.0826 3.0000 -1.6290
f 329 331 330
f 329 332 331
f 333 334 335
f 333 335 336
f 329 330 334
f 329 334 333
f 332 336 335
f 332 335 331
f 329 333 336
f 329 336 332
f 330 331 335
f 330 335 334

o glazing_opn_299453ad03
v 6.0826 0.9000 -1.7640
v 8.1326 0.9000 -1.7640
v 8.1326 2.2500 -1.7640
v 6.0826 2.2500 -1.7640
v 6.0826 0.9000 -1.7240
v 8.1326 0.9000 -1.7240
v 8.1326 2.2500 -1.7240
v 6.0826 2.2500 -1.7240
f 337 339 338
f 337 340 339
f 341 342 343
f 341 343 344
f 337 338 342
f 337 342 341
f 340 344 343
f 340 343 339
f 337 341 344
f 337 344 340
f 338 339 343
f 338 343 342

o wall_wal_9ca28c42b3_43
v 8.1326 0.0000 -1.8590
v 8.4328 0.0000 -1.8590
v 8.4328 3.0000 -1.8590
v 8.1326 3.0000 -1.8590
v 8.1326 0.0000 -1.6290
v 8.4328 0.0000 -1.6290
v 8.4328 3.0000 -1.6290
v 8.1326 3.0000 -1.6290
f 345 347 346
f 345 348 347
f 349 350 351
f 349 351 352
f 345 346 350
f 345 350 349
f 348 352 351
f 348 351 347
f 345 349 352
f 345 352 348
f 346 347 351
f 346 351 350

o wall_wal_09b90af865_44
v 8.4903 0.0000 -6.6461
v 8.4903 0.0000 -1.7440
v 8.4903 3.0000 -1.7440
v 8.4903 3.0000 -6.6461
v 8.3753 0.0000 -6.6461
v 8.3753 0.0000 -1.7440
v 8.3753 3.0000 -1.7440
v 8.3753 3.0000 -6.6461
f 353 355 354
f 353 356 355
f 357 358 359
f 357 359 360
f 353 354 358
f 353 358 357
f 356 360 359
f 356 359 355
f 353 357 360
f 353 360 356
f 354 355 359
f 354 359 358

o wall_wal_16176b0fe3_45
v 8.4328 0.0000 -6.5886
v 5.7824 0.0000 -6.5886
v 5.7824 3.0000 -6.5886
v 8.4328 3.0000 -6.5886
v 8.4328 0.0000 -6.7036
v 5.7824 0.0000 -6.7036
v 5.7824 3.0000 -6.7036
v 8.4328 3.0000 -6.7036
f 361 363 362
f 361 364 363
f 365 366 367
f 365 367 368
f 361 362 366
f 361 366 365
f 364 368 367
f 364 367 363
f 361 365 368
f 361 368 364
f 362 363 367
f 362 367 366

o wall_wal_c974a6c2a4_46
v 5.7249 0.0000 -1.7440
v 5.7249 0.0000 -6.6461
v 5.7249 3.0000 -6.6461
v 5.7249 3.0000 -1.7440
v 5.8399 0.0000 -1.7440
v 5.8399 0.0000 -6.6461
v 5.8399 3.0000 -6.6461
v 5.8399 3.0000 -1.7440
f 369 371 370
f 369 372 371
f 373 374 375
f 373 375 376
f 369 370 374
f 369 374 373
f 372 376 375
f 372 375 371
f 369 373 376
f 369 376 372
f 370 371 375
f 370 375 374

o wall_wal_564ba17865_47
v 1.5347 0.0000 -11.0954
v 3.1336 0.0000 -11.0954
v 3.1336 3.0000 -11.0954
v 1.5347 3.0000 -11.0954
v 1.5347 0.0000 -10.9804
v 3.1336 0.0000 -10.9804
v 3.1336 3.0000 -10.9804
v 1.5347 3.0000 -10.9804
f 377 379 378
f 377 380 379
f 381 382 383
f 381 383 384
f 377 378 382
f 377 382 381
f 380 384 383
f 380 383 379
f 377 381 384
f 377 384 380
f 378 379 383
f 378 383 382

o wall_wal_564ba17865_48
v 3.1336 2.1000 -11.0954
v 4.1836 2.1000 -11.0954
v 4.1836 3.0000 -11.0954
v 3.1336 3.0000 -11.0954
v 3.1336 2.1000 -10.9804
v 4.1836 2.1000 -10.9804
v 4.1836 3.0000 -10.9804
v 3.1336 3.0000 -10.9804
f 385 387 386
f 385 388 387
f 389 390 391
f 389 391 392
f 385 386 390
f 385 390 389
f 388 392 391
f 388 391 387
f 385 389 392
f 385 392 388
f 386 387 391
f 386 391 390

o door_opn_941790ccc9
v 3.1336 0.0000 -11.0579
v 4.1836 0.0000 -11.0579
v 4.1836 2.1000 -11.0579
v 3.1336 2.1000 -11.0579
v 3.1336 0.0000 -11.0179
v 4.1836 0.0000 -11.0179
v 4.1836 2.1000 -11.0179
v 3.1336 2.1000 -11.0179
f 393 395 394
f 393 396 395
f 397 398 399
f 397 399 400
f 393 394 398
f 393 398 397
f 396 400 399
f 396 399 395
f 393 397 400
f 393 400 396
f 394 395 399
f 394 399 398

o wall_wal_564ba17865_50
v 4.1836 0.0000 -11.0954
v 5.7824 0.0000 -11.0954
v 5.7824 3.0000 -11.0954
v 4.1836 3.0000 -11.0954
v 4.1836 0.0000 -10.9804
v 5.7824 0.0000 -10.9804
v 5.7824 3.0000 -10.9804
v 4.1836 3.0000 -10.9804
f 401 403 402
f 401 404 403
f 405 406 407
f 405 407 408
f 401 402 406
f 401 406 405
f 404 408 407
f 404 407 403
f 401 405 408
f 401 408 404
f 402 403 407
f 402 407 406

o wall_wal_f7b9e310c1_51
v 5.8399 0.0000 -16.2560
v 5.8399 0.0000 -11.0379
v 5.8399 3.0000 -11.0379
v 5.8399 3.0000 -16.2560
v 5.7249 0.0000 -16.2560
v 5.7249 0.0000 -11.0379
v 5.7249 3.0000 -11.0379
v 5.7249 3.0000 -16.2560
f 409 411 410
f 409 412 411
f 413 414 415
f 413 415 416
f 409 410 414
f 409 414 413
f 412 416 415
f 412 415 411
f 409 413 416
f 409 416 412
f 410 411 415
f 410 415 414

o wall_wal_efcce20048_52
v 5.7824 0.0000 -16.1410
v 4.1836 0.0000 -16.1410
v 4.1836 3.0000 -16.1410
v 5.7824 3.0000 -16.1410
v 5.7824 0.0000 -16.3710
v 4.1836 0.0000 -16.3710
v 4.1836 3.0000 -16.3710
v 5.7824 3.0000 -16.3710
f 417 419 418
f 417 420 419
f 421 422 423
f 421 423 424
f 417 418 422
f 417 422 421
f 420 424 423
f 420 423 419
f 417 421 424
f 417 424 420
f 418 419 423
f 418 423 422

o wall_wal_efcce20048_53
v 4.1836 2.1000 -16.1410
v 3.1336 2.1000 -16.1410
v 3.1336 3.0000 -16.1410
v 4.1836 3.0000 -16.1410
v 4.1836 2.1000 -16.3710
v 3.1336 2.1000 -16.3710
v 3.1336 3.0000 -16.3710
v 4.1836 3.0000 -16.3710
f 425 427 426
f 425 428 427
f 429 430 431
f 429 431 432
f 425 426 430
f 425 430 429
f 428 432 431
f 428 431 427
f 425 429 432
f 425 432 428
f 426 427 431
f 426 431 430

o door_opn_df4a0580ed
v 4.1836 0.0000 -16.2360
v 3.1336 0.0000 -16.2360
v 3.1336 2.1000 -16.2360
v 4.1836 2.1000 -16.2360
v 4.1836 0.0000 -16.2760
v 3.1336 0.0000 -16.2760
v 3.1336 2.1000 -16.2760
v 4.1836 2.1000 -16.2760
f 433 435 434
f 433 436 435
f 437 438 439
f 437 439 440
f 433 434 438
f 433 438 437
f 436 440 439
f 436 439 435
f 433 437 440
f 433 440 436
f 434 435 439
f 434 439 438

o wall_wal_efcce20048_55
v 4.5706 0.0000 -16.1410
v 2.7466 0.0000 -16.1410
v 2.7466 0.9000 -16.1410
v 4.5706 0.9000 -16.1410
v 4.5706 0.0000 -16.3710
v 2.7466 0.0000 -16.3710
v 2.7466 0.9000 -16.3710
v 4.5706 0.9000 -16.3710
f 441 443 442
f 441 444 443
f 445 446 447
f 445 447 448
f 441 442 446
f 441 446 445
f 444 448 447
f 444 447 443
f 441 445 448
f 441 448 444
f 442 443 447
f 442 447 446

o wall_wal_efcce20048_56
v 4.5706 2.2500 -16.1410
v 2.7466 2.2500 -16.1410
v 2.7466 3.0000 -16.1410
v 4.5706 3.0000 -16.1410
v 4.5706 2.2500 -16.3710
v 2.7466 2.2500 -16.3710
v 2.7466 3.0000 -16.3710
v 4.5706 3.0000 -16.3710
f 449 451 450
f 449 452 451
f 453 454 455
f 453 455 456
f 449 450 454
f 449 454 453
f 452 456 455
f 452 455 451
f 449 453 456
f 449 456 452
f 450 451 455
f 450 455 454

o glazing_opn_c6b4fb0cb3
v 4.5706 0.9000 -16.2360
v 2.7466 0.9000 -16.2360
v 2.7466 2.2500 -16.2360
v 4.5706 2.2500 -16.2360
v 4.5706 0.9000 -16.2760
v 2.7466 0.9000 -16.2760
v 2.7466 2.2500 -16.2760
v 4.5706 2.2500 -16.2760
f 457 459 458
f 457 460 459
f 461 462 463
f 461 463 464
f 457 458 462
f 457 462 461
f 460 464 463
f 460 463 459
f 457 461 464
f 457 464 460
f 458 459 463
f 458 463 462

o wall_wal_efcce20048_58
v 2.7466 0.0000 -16.1410
v 1.5347 0.0000 -16.1410
v 1.5347 3.0000 -16.1410
v 2.7466 3.0000 -16.1410
v 2.7466 0.0000 -16.3710
v 1.5347 0.0000 -16.3710
v 1.5347 3.0000 -16.3710
v 2.7466 3.0000 -16.3710
f 465 467 466
f 465 468 467
f 469 470 471
f 469 471 472
f 465 466 470
f 465 470 469
f 468 472 471
f 468 471 467
f 465 469 472
f 465 472 468
f 466 467 471
f 466 471 470

o wall_wal_650c017a80_59
v 1.4197 0.0000 -14.5590
v 1.4197 0.0000 -16.2560
v 1.4197 3.0000 -16.2560
v 1.4197 3.0000 -14.5590
v 1.6497 0.0000 -14.5590
v 1.6497 0.0000 -16.2560
v 1.6497 3.0000 -16.2560
v 1.6497 3.0000 -14.5590
f 473 475 474
f 473 476 475
f 477 478 479
f 477 479 480
f 473 474 478
f 473 478 477
f 476 480 479
f 476 479 475
f 473 477 480
f 473 480 476
f 474 475 479
f 474 479 478

o wall_wal_650c017a80_60
v 1.4197 0.0000 -12.7350
v 1.4197 0.0000 -14.5590
v 1.4197 0.9000 -14.5590
v 1.4197 0.9000 -12.7350
v 1.6497 0.0000 -12.7350
v 1.6497 0.0000 -14.5590
v 1.6497 0.9000 -14.5590
v 1.6497 0.9000 -12.7350
f 481 483 482
f 481 484 483
f 485 486 487
f 485 487 488
f 481 482 486
f 481 486 485
f 484 488 487
f 484 487 483
f 481 485 488
f 481 488 484
f 482 483 487
f 482 487 486

o wall_wal_650c017a80_61
v 1.4197 2.2500 -12.7350
v 1.4197 2.2500 -14.5590
v 1.4197 3.0000 -14.5590
v 1.4197 3.0000 -12.7350
v 1.6497 2.2500 -12.7350
v 1.6497 2.2500 -14.5590
v 1.6497 3.0000 -14.5590
v 1.6497 3.0000 -12.7350
f 489 491 490
f 489 492 491
f 493 494 495
f 493 495 496
f 489 490 494
f 489 494 493
f 492 496 495
f 492 495 491
f 489 493 496
f 489 496 492
f 490 491 495
f 490 495 494

o glazing_opn_c1963ea5ff
v 1.5147 0.9000 -12.7350
v 1.5147 0.9000 -14.5590
v 1.5147 2.2500 -14.5590
v 1.5147 2.2500 -12.7350
v 1.5547 0.9000 -12.7350
v 1.5547 0.9000 -14.5590
v 1.5547 2.2500 -14.5590
v 1.5547 2.2500 -12.7350
f 497 499 498
f 497 500 499
f 501 502 503
f 501 503 504
f 497 498 502
f 497 502 501
f 500 504 503
f 500 503 499
f 497 501 504
f 497 504 500
f 498 499 503
f 498 503 502

o wall_wal_650c017a80_63
v 1.4197 0.0000 -11.0379
v 1.4197 0.0000 -12.7350
v 1.4197 3.0000 -12.7350
v 1.4197 3.0000 -11.0379
v 1.6497 0.0000 -11.0379
v 1.6497 0.0000 -12.7350
v 1.6497 3.0000 -12.7350
v 1.6497 3.0000 -11.0379
f 505 507 506
f 505 508 507
f 509 510 511
f 509 511 512
f 505 506 510
f 505 510 509
f 508 512 511
f 508 511 507
f 505 509 512
f 505 512 508
f 506 507 511
f 506 511 510

o wall_wal_aed1c023f8_64
v 1.5347 0.0000 -8.4864
v 5.7824 0.0000 -8.4864
v 5.7824 3.0000 -8.4864
v 1.5347 3.0000 -8.4864
v 1.5347 0.0000 -8.3714
v 5.7824 0.0000 -8.3714
v 5.7824 3.0000 -8.3714
v 1.5347 3.0000 -8.3714
f 513 515 514
f 513 516 515
f 517 518 519
f 517 519 520
f 513 514 518
f 513 518 517
f 516 520 519
f 516 519 515
f 513 517 520
f 513 520 516
f 514 515 519
f 514 519 518

o wall_wal_de8001b84e_65
v 5.8399 0.0000 -11.0379
v 5.8399 0.0000 -8.4289
v 5.8399 3.0000 -8.4289
v 5.8399 3.0000 -11.0379
v 5.7249 0.0000 -11.0379
v 5.7249 0.0000 -8.4289
v 5.7249 3.0000 -8.4289
v 5.7249 3.0000 -11.0379
f 521 523 522
f 521 524 523
f 525 526 527
f 525 527 528
f 521 522 526
f 521 526 525
f 524 528 527
f 524 527 523
f 521 525 528
f 521 528 524
f 522 523 527
f 522 527 526

o wall_wal_9f8e5dc8bb_66
v 1.4197 0.0000 -10.6669
v 1.4197 0.0000 -11.0379
v 1.4197 3.0000 -11.0379
v 1.4197 3.0000 -10.6669
v 1.6497 0.0000 -10.6669
v 1.6497 0.0000 -11.0379
v 1.6497 3.0000 -11.0379
v 1.6497 3.0000 -10.6669
f 529 531 530
f 529 532 531
f 533 534 535
f 533 535 536
f 529 530 534
f 529 534 533
f 532 536 535
f 532 535 531
f 529 533 536
f 529 536 532
f 530 531 535
f 530 535 534

o wall_wal_9f8e5dc8bb_67
v 1.4197 0.0000 -8.7999
v 1.4197 0.0000 -10.6669
v 1.4197 1.8000 -10.6669
v 1.4197 1.8000 -8.7999
v 1.6497 0.0000 -8.7999
v 1.6497 0.0000 -10.6669
v 1.6497 1.8000 -10.6669
v 1.6497 1.8000 -8.7999
f 537 539 538
f 537 540 539
f 541 542 543
f 541 543 544
f 537 538 542
f 537 542 541
f 540 544 543
f 540 543 539
f 537 541 544
f 537 544 540
f 538 539 543
f 538 543 542

o wall_wal_9f8e5dc8bb_68
v 1.4197 2.5500 -8.7999
v 1.4197 2.5500 -10.6669
v 1.4197 3.0000 -10.6669
v 1.4197 3.0000 -8.7999
v 1.6497 2.5500 -8.7999
v 1.6497 2.5500 -10.6669
v 1.6497 3.0000 -10.6669
v 1.6497 3.0000 -8.7999
f 545 547 546
f 545 548 547
f 549 550 551
f 549 551 552
f 545 546 550
f 545 550 549
f 548 552 551
f 548 551 547
f 545 549 552
f 545 552 548
f 546 547 551
f 546 551 550

o glazing_opn_af9f62a539
v 1.5147 1.8000 -8.7999
v 1.5147 1.8000 -10.6669
v 1.5147 2.5500 -10.6669
v 1.5147 2.5500 -8.7999
v 1.5547 1.8000 -8.7999
v 1.5547 1.8000 -10.6669
v 1.5547 2.5500 -10.6669
v 1.5547 2.5500 -8.7999
f 553 555 554
f 553 556 555
f 557 558 559
f 557 559 560
f 553 554 558
f 553 558 557
f 556 560 559
f 556 559 555
f 553 557 560
f 553 560 556
f 554 555 559
f 554 559 558

o wall_wal_9f8e5dc8bb_70
v 1.4197 0.0000 -8.4289
v 1.4197 0.0000 -8.7999
v 1.4197 3.0000 -8.7999
v 1.4197 3.0000 -8.4289
v 1.6497 0.0000 -8.4289
v 1.6497 0.0000 -8.7999
v 1.6497 3.0000 -8.7999
v 1.6497 3.0000 -8.4289
f 561 563 562
f 561 564 563
f 565 566 567
f 565 567 568
f 561 562 566
f 561 566 565
f 564 568 567
f 564 567 563
f 561 565 568
f 561 568 564
f 562 563 567
f 562 567 566

o wall_wal_7543c1a0f5_71
v 10.5803 0.0000 -16.2560
v 10.5803 0.0000 -12.1807
v 10.5803 3.0000 -12.1807
v 10.5803 3.0000 -16.2560
v 10.3503 0.0000 -16.2560
v 10.3503 0.0000 -12.1807
v 10.3503 3.0000 -12.1807
v 10.3503 3.0000 -16.2560
f 569 571 570
f 569 572 571
f 573 574 575
f 573 575 576
f 569 570 574
f 569 574 573
f 572 576 575
f 572 575 571
f 569 573 576
f 569 576 572
f 570 571 575
f 570 575 574

o wall_wal_70027cc82e_72
v 10.4653 0.0000 -16.1410
v 5.7824 0.0000 -16.1410
v 5.7824 3.0000 -16.1410
v 10.4653 3.0000 -16.1410
v 10.4653 0.0000 -16.3710
v 5.7824 0.0000 -16.3710
v 5.7824 3.0000 -16.3710
v 10.4653 3.0000 -16.3710
f 577 579 578
f 577 580 579
f 581 582 583
f 581 583 584
f 577 578 582
f 577 582 581
f 580 584 583
f 580 583 579
f 577 581 584
f 577 584 580
f 578 579 583
f 578 583 582

o wall_wal_db5c669dac_73
v 5.7249 0.0000 -12.1807
v 5.7249 0.0000 -16.2560
v 5.7249 3.0000 -16.2560
v 5.7249 3.0000 -12.1807
v 5.8399 0.0000 -12.1807
v 5.8399 0.0000 -16.2560
v 5.8399 3.0000 -16.2560
v 5.8399 3.0000 -12.1807
f 585 587 586
f 585 588 587
f 589 590 591
f 589 591 592
f 585 586 590
f 585 590 589
f 588 592 591
f 588 591 587
f 585 589 592
f 585 592 588
f 586 587 591
f 586 591 590

o wall_wal_f6a33d9a73_74
v 8.4328 0.0000 -4.1174
v 8.9240 0.0000 -4.1174
v 8.9240 3.0000 -4.1174
v 8.4328 3.0000 -4.1174
v 8.4328 0.0000 -4.0024
v 8.9240 0.0000 -4.0024
v 8.9240 3.0000 -4.0024
v 8.4328 3.0000 -4.0024
f 593 595 594
f 593 596 595
f 597 598 599
f 597 599 600
f 593 594 598
f 593 598 597
f 596 600 599
f 596 599 595
f 593 597 600
f 593 600 596
f 594 595 599
f 594 599 598

o wall_wal_f6a33d9a73_75
v 8.9240 2.1000 -4.1174
v 9.9740 2.1000 -4.1174
v 9.9740 3.0000 -4.1174
v 8.9240 3.0000 -4.1174
v 8.9240 2.1000 -4.0024
v 9.9740 2.1000 -4.0024
v 9.9740 3.0000 -4.0024
v 8.9240 3.0000 -4.0024
f 601 603 602
f 601 604 603
f 605 606 607
f 605 607 608
f 601 602 606
f 601 606 605
f 604 608 607
f 604 607 603
f 601 605 608
f 601 608 604
f 602 603 607
f 602 607 606

o door_opn_71fd9b7f87
v 8.9240 0.0000 -4.0799
v 9.9740 0.0000 -4.0799
v 9.9740 2.1000 -4.0799
v 8.9240 2.1000 -4.0799
v 8.9240 0.0000 -4.0399
v 9.9740 0.0000 -4.0399
v 9.9740 2.1000 -4.0399
v 8.9240 2.1000 -4.0399
f 609 611 610
f 609 612 611
f 613 614 615
f 613 615 616
f 609 610 614
f 609 614 613
f 612 616 615
f 612 615 611
f 609 613 616
f 609 616 612
f 610 611 615
f 610 615 614

o wall_wal_f6a33d9a73_77
v 9.9740 0.0000 -4.1174
v 10.4653 0.0000 -4.1174
v 10.4653 3.0000 -4.1174
v 9.9740 3.0000 -4.1174
v 9.9740 0.0000 -4.0024
v 10.4653 0.0000 -4.0024
v 10.4653 3.0000 -4.0024
v 9.9740 3.0000 -4.0024
f 617 619 618
f 617 620 619
f 621 622 623
f 621 623 624
f 617 618 622
f 617 622 621
f 620 624 623
f 620 623 619
f 617 621 624
f 617 624 620
f 618 619 623
f 618 623 622

o wall_wal_0bd0daba23_78
v 10.5803 0.0000 -4.4195
v 10.5803 0.0000 -4.0599
v 10.5803 3.0000 -4.0599
v 10.5803 3.0000 -4.4195
v 10.3503 0.0000 -4.4195
v 10.3503 0.0000 -4.0599
v 10.3503 3.0000 -4.0599
v 10.3503 3.0000 -4.4195
f 625 627 626
f 625 628 627
f 629 630 631
f 629 631 632
f 625 626 630
f 625 630 629
f 628 632 631
f 628 631 627
f 625 629 632
f 625 632 628
f 626 627 631
f 626 631 630

o wall_wal_0bd0daba23_79
v 10.5803 0.0000 -6.2865
v 10.5803 0.0000 -4.4195
v 10.5803 1.8000 -4.4195
v 10.5803 1.8000 -6.2865
v 10.3503 0.0000 -6.2865
v 10.3503 0.0000 -4.4195
v 10.3503 1.8000 -4.4195
v 10.3503 1.8000 -6.2865
f 633 635 634
f 633 636 635
f 637 638 639
f 637 639 640
f 633 634 638
f 633 638 637
f 636 640 639
f 636 639 635
f 633 637 640
f 633 640 636
f 634 635 639
f 634 639 638

o wall_wal_0bd0daba23_80
v 10.5803 2.5500 -6.2865
v 10.5803 2.5500 -4.4195
v 10.5803 3.0000 -4.4195
v 10.5803 3.0000 -6.2865
v 10.3503 2.5500 -6.2865
v 10.3503 2.5500 -4.4195
v 10.3503 3.0000 -4.4195
v 10.3503 3.0000 -6.2865
f 641 643 642
f 641 644 643
f 645 646 647
f 645 647 648
f 641 642 646
f 641 646 645
f 644 648 647
f 644 647 643
f 641 645 648
f 641 648 644
f 642 643 647
f 642 647 646

o glazing_opn_05f732c4e3
v 10.4853 1.8000 -6.2865
v 10.4853 1.8000 -4.4195
v 10.4853 2.5500 -4.4195
v 10.4853 2.5500 -6.2865
v 10.4453 1.8000 -6.2865
v 10.4453 1.8000 -4.4195
v 10.4453 2.5500 -4.4195
v 10.4453 2.5500 -6.2865
f 649 651 650
f 649 652 651
f 653 654 655
f 653 655 656
f 649 650 654
f 649 654 653
f 652 656 655
f 652 655 651
f 649 653 656
f 649 656 652
f 650 651 655
f 650 655 654

o wall_wal_0bd0daba23_82
v 10.5803 0.0000 -6.6461
v 10.5803 0.0000 -6.2865
v 10.5803 3.0000 -6.2865
v 10.5803 3.0000 -6.6461
v 10.3503 0.0000 -6.6461
v 10.3503 0.0000 -6.2865
v 10.3503 3.0000 -6.2865
v 10.3503 3.0000 -6.6461
f 657 659 658
f 657 660 659
f 661 662 663
f 661 663 664
f 657 658 662
f 657 662 661
f 660 664 663
f 660 663 659
f 657 661 664
f 657 664 660
f 658 659 663
f 658 663 662

o wall_wal_feee57f7e2_83
v 10.4653 0.0000 -6.5886
v 8.4328 0.0000 -6.5886
v 8.4328 3.0000 -6.5886
v 10.4653 3.0000 -6.5886
v 10.4653 0.0000 -6.7036
v 8.4328 0.0000 -6.7036
v 8.4328 3.0000 -6.7036
v 10.4653 3.0000 -6.7036
f 665 667 666
f 665 668 667
f 669 670 671
f 669 671 672
f 665 666 670
f 665 670 669
f 668 672 671
f 668 671 667
f 665 669 672
f 665 672 668
f 666 667 671
f 666 671 670

o wall_wal_4771cd4c46_84
v 8.3753 0.0000 -4.0599
v 8.3753 0.0000 -6.6461
v 8.3753 3.0000 -6.6461
v 8.3753 3.0000 -4.0599
v 8.4903 0.0000 -4.0599
v 8.4903 0.0000 -6.6461
v 8.4903 3.0000 -6.6461
v 8.4903 3.0000 -4.0599
f 673 675 674
f 673 676 675
f 677 678 679
f 677 679 680
f 673 674 678
f 673 678 677
f 676 680 679
f 676 679 675
f 673 677 680
f 673 680 676
f 674 675 679
f 674 679 678

o wall_wal_2d5a387f75_85
v 7.7473 0.0000 -6.7036
v 10.4653 0.0000 -6.7036
v 10.4653 3.0000 -6.7036
v 7.7473 3.0000 -6.7036
v 7.7473 0.0000 -6.5886
v 10.4653 0.0000 -6.5886
v 10.4653 3.0000 -6.5886
v 7.7473 3.0000 -6.5886
f 681 683 682
f 681 684 683
f 685 686 687
f 685 687 688
f 681 682 686
f 681 686 685
f 684 688 687
f 684 687 683
f 681 685 688
f 681 688 684
f 682 683 687
f 682 687 686

o wall_wal_21d340a668_86
v 10.5803 0.0000 -7.0038
v 10.5803 0.0000 -6.6461
v 10.5803 3.0000 -6.6461
v 10.5803 3.0000 -7.0038
v 10.3503 0.0000 -7.0038
v 10.3503 0.0000 -6.6461
v 10.3503 3.0000 -6.6461
v 10.3503 3.0000 -7.0038
f 689 691 690
f 689 692 691
f 693 694 695
f 693 695 696
f 689 690 694
f 689 694 693
f 692 696 695
f 692 695 691
f 689 693 696
f 689 696 692
f 690 691 695
f 690 695 694

o wall_wal_21d340a668_87
v 10.5803 0.0000 -8.8708
v 10.5803 0.0000 -7.0038
v 10.5803 1.8000 -7.0038
v 10.5803 1.8000 -8.8708
v 10.3503 0.0000 -8.8708
v 10.3503 0.0000 -7.0038
v 10.3503 1.8000 -7.0038
v 10.3503 1.8000 -8.8708
f 697 699 698
f 697 700 699
f 701 702 703
f 701 703 704
f 697 698 702
f 697 702 701
f 700 704 703
f 700 703 699
f 697 701 704
f 697 704 700
f 698 699 703
f 698 703 702

o wall_wal_21d340a668_88
v 10.5803 2.5500 -8.8708
v 10.5803 2.5500 -7.0038
v 10.5803 3.0000 -7.0038
v 10.5803 3.0000 -8.8708
v 10.3503 2.5500 -8.8708
v 10.3503 2.5500 -7.0038
v 10.3503 3.0000 -7.0038
v 10.3503 3.0000 -8.8708
f 705 707 706
f 705 708 707
f 709 710 711
f 709 711 712
f 705 706 710
f 705 710 709
f 708 712 711
f 708 711 707
f 705 709 712
f 705 712 708
f 706 707 711
f 706 711 710

o glazing_opn_ad5611b08e
v 10.4853 1.8000 -8.8708
v 10.4853 1.8000 -7.0038
v 10.4853 2.5500 -7.0038
v 10.4853 2.5500 -8.8708
v 10.4453 1.8000 -8.8708
v 10.4453 1.8000 -7.0038
v 10.4453 2.5500 -7.0038
v 10.4453 2.5500 -8.8708
f 713 715 714
f 713 716 715
f 717 718 719
f 717 719 720
f 713 714 718
f 713 718 717
f 716 720 719
f 716 719 715
f 713 717 720
f 713 720 716
f 714 715 719
f 714 719 718

o wall_wal_21d340a668_90
v 10.5803 0.0000 -9.2285
v 10.5803 0.0000 -8.8708
v 10.5803 3.0000 -8.8708
v 10.5803 3.0000 -9.2285
v 10.3503 0.0000 -9.2285
v 10.3503 0.0000 -8.8708
v 10.3503 3.0000 -8.8708
v 10.3503 3.0000 -9.2285
f 721 723 722
f 721 724 723
f 725 726 727
f 725 727 728
f 721 722 726
f 721 726 725
f 724 728 727
f 724 727 723
f 721 725 728
f 721 728 724
f 722 723 727
f 722 727 726

o wall_wal_ba1846629e_91
v 10.4653 0.0000 -9.1710
v 7.7473 0.0000 -9.1710
v 7.7473 3.0000 -9.1710
v 10.4653 3.0000 -9.1710
v 10.4653 0.0000 -9.2860
v 7.7473 0.0000 -9.2860
v 7.7473 3.0000 -9.2860
v 10.4653 3.0000 -9.2860
f 729 731 730
f 729 732 731
f 733 734 735
f 733 735 736
f 729 730 734
f 729 734 733
f 732 736 735
f 732 735 731
f 729 733 736
f 729 736 732
f 730 731 735
f 730 735 734

o wall_wal_fe472a407f_92
v 7.6898 0.0000 -8.4623
v 7.6898 0.0000 -9.2285
v 7.6898 3.0000 -9.2285
v 7.6898 3.0000 -8.4623
v 7.8048 0.0000 -8.4623
v 7.8048 0.0000 -9.2285
v 7.8048 3.0000 -9.2285
v 7.8048 3.0000 -8.4623
f 737 739 738
f 737 740 739
f 741 742 743
f 741 743 744
f 737 738 742
f 737 742 741
f 740 744 743
f 740 743 739
f 737 741 744
f 737 744 740
f 738 739 743
f 738 743 742

o wall_wal_fe472a407f_93
v 7.6898 2.1000 -7.4123
v 7.6898 2.1000 -8.4623
v 7.6898 3.0000 -8.4623
v 7.6898 3.0000 -7.4123
v 7.8048 2.1000 -7.4123
v 7.8048 2.1000 -8.4623
v 7.8048 3.0000 -8.4623
v 7.8048 3.0000 -7.4123
f 745 747 746
f 745 748 747
f 749 750 751
f 749 751 752
f 745 746 750
f 745 750 749
f 748 752 751
f 748 751 747
f 745 749 752
f 745 752 748
f 746 747 751
f 746 751 750

o door_opn_04cae896fa
v 7.7273 0.0000 -7.4123
v 7.7273 0.0000 -8.4623
v 7.7273 2.1000 -8.4623
v 7.7273 2.1000 -7.4123
v 7.7673 0.0000 -7.4123
v 7.7673 0.0000 -8.4623
v 7.7673 2.1000 -8.4623
v 7.7673 2.1000 -7.4123
f 753 755 754
f 753 756 755
f 757 758 759
f 757 759 760
f 753 754 758
f 753 758 757
f 756 760 759
f 756 759 755
f 753 757 760
f 753 760 756
f 754 755 759
f 754 759 758

o wall_wal_fe472a407f_95
v 7.6898 0.0000 -6.6461
v 7.6898 0.0000 -7.4123
v 7.6898 3.0000 -7.4123
v 7.6898 3.0000 -6.6461
v 7.8048 0.0000 -6.6461
v 7.8048 0.0000 -7.4123
v 7.8048 3.0000 -7.4123
v 7.8048 3.0000 -6.6461
f 761 763 762
f 761 764 763
f 765 766 767
f 765 767 768
f 761 762 766
f 761 766 765
f 764 768 767
f 764 767 763
f 761 765 768
f 761 768 764
f 762 763 767
f 762 767 766

o wall_wal_a924a7c8a4_96
v 5.7824 0.0000 -6.7036
v 6.2398 0.0000 -6.7036
v 6.2398 3.0000 -6.7036
v 5.7824 3.0000 -6.7036
v 5.7824 0.0000 -6.5886
v 6.2398 0.0000 -6.5886
v 6.2398 3.0000 -6.5886
v 5.7824 3.0000 -6.5886
f 769 771 770
f 769 772 771
f 773 774 775
f 773 775 776
f 769 770 774
f 769 774 773
f 772 776 775
f 772 775 771
f 769 773 776
f 769 776 772
f 770 771 775
f 770 775 774

o wall_wal_a924a7c8a4_97
v 6.2398 2.1000 -6.7036
v 7.2898 2.1000 -6.7036
v 7.2898 3.0000 -6.7036
v 6.2398 3.0000 -6.7036
v 6.2398 2.1000 -6.5886
v 7.2898 2.1000 -6.5886
v 7.2898 3.0000 -6.5886
v 6.2398 3.0000 -6.5886
f 777 779 778
f 777 780 779
f 781 782 783
f 781 783 784
f 777 778 782
f 777 782 781
f 780 784 783
f 780 783 779
f 777 781 784
f 777 784 780
f 778 779 783
f 778 783 782

o door_opn_ba269d1e20
v 6.2398 0.0000 -6.6661
v 7.2898 0.0000 -6.6661
v 7.2898 2.1000 -6.6661
v 6.2398 2.1000 -6.6661
v 6.2398 0.0000 -6.6261
v 7.2898 0.0000 -6.6261
v 7.2898 2.1000 -6.6261
v 6.2398 2.1000 -6.6261
f 785 787 786
f 785 788 787
f 789 790 791
f 789 791 792
f 785 786 790
f 785 790 789
f 788 792 791
f 788 791 787
f 785 789 792
f 785 792 788
f 786 787 791
f 786 791 790

o wall_wal_a924a7c8a4_99
v 7.2898 0.0000 -6.7036
v 7.7473 0.0000 -6.7036
v 7.7473 3.0000 -6.7036
v 7.2898 3.0000 -6.7036
v 7.2898 0.0000 -6.5886
v 7.7473 0.0000 -6.5886
v 7.7473 3.0000 -6.5886
v 7.2898 3.0000 -6.5886
f 793 795 794
f 793 796 795
f 797 798 799
f 797 799 800
f 793 794 798
f 793 798 797
f 796 800 799
f 796 799 795
f 793 797 800
f 793 800 796
f 794 795 799
f 794 799 798

o wall_wal_272cf019e9_100
v 7.7473 0.0000 -9.1710
v 7.2898 0.0000 -9.1710
v 7.2898 3.0000 -9.1710
v 7.7473 3.0000 -9.1710
v 7.7473 0.0000 -9.2860
v 7.2898 0.0000 -9.2860
v 7.2898 3.0000 -9.2860
v 7.7473 3.0000 -9.2860
f 801 803 802
f 801 804 803
f 805 806 807
f 805 807 808
f 801 802 806
f 801 806 805
f 804 808 807
f 804 807 803
f 801 805 808
f 801 808 804
f 802 803 807
f 802 807 806

o wall_wal_272cf019e9_101
v 7.2898 2.1000 -9.1710
v 6.2398 2.1000 -9.1710
v 6.2398 3.0000 -9.1710
v 7.2898 3.0000 -9.1710
v 7.2898 2.1000 -9.2860
v 6.2398 2.1000 -9.2860
v 6.2398 3.0000 -9.2860
v 7.2898 3.0000 -9.2860
f 809 811 810
f 809 812 811
f 813 814 815
f 813 815 816
f 809 810 814
f 809 814 813
f 812 816 815
f 812 815 811
f 809 813 816
f 809 816 812
f 810 811 815
f 810 815 814

o door_opn_1623a5f8be
v 7.2898 0.0000 -9.2085
v 6.2398 0.0000 -9.2085
v 6.2398 2.1000 -9.2085
v 7.2898 2.1000 -9.2085
v 7.2898 0.0000 -9.2485
v 6.2398 0.0000 -9.2485
v 6.2398 2.1000 -9.2485
v 7.2898 2.1000 -9.2485
f 817 819 818
f 817 820 819
f 821 822 823
f 821 823 824
f 817 818 822
f 817 822 821
f 820 824 823
f 820 823 819
f 817 821 824
f 817 824 820
f 818 819 823
f 818 823 822

o wall_wal_272cf019e9_103
v 6.2398 0.0000 -9.1710
v 5.7824 0.0000 -9.1710
v 5.7824 3.0000 -9.1710
v 6.2398 3.0000 -9.1710
v 6.2398 0.0000 -9.2860
v 5.7824 0.0000 -9.2860
v 5.7824 3.0000 -9.2860
v 6.2398 3.0000 -9.2860
f 825 827 826
f 825 828 827
f 829 830 831
f 829 831 832
f 825 826 830
f 825 830 829
f 828 832 831
f 828 831 827
f 825 829 832
f 825 832 828
f 826 827 831
f 826 831 830

o wall_wal_0ba08eb228_104
v 5.7249 0.0000 -8.4623
v 5.7249 0.0000 -9.2285
v 5.7249 3.0000 -9.2285
v 5.7249 3.0000 -8.4623
v 5.8399 0.0000 -8.4623
v 5.8399 0.0000 -9.2285
v 5.8399 3.0000 -9.2285
v 5.8399 3.0000 -8.4623
f 833 835 834
f 833 836 835
f 837 838 839
f 837 839 840
f 833 834 838
f 833 838 837
f 836 840 839
f 836 839 835
f 833 837 840
f 833 840 836
f 834 835 839
f 834 839 838

o wall_wal_0ba08eb228_105
v 5.7249 2.1000 -7.4123
v 5.7249 2.1000 -8.4623
v 5.7249 3.0000 -8.4623
v 5.7249 3.0000 -7.4123
v 5.8399 2.1000 -7.4123
v 5.8399 2.1000 -8.4623
v 5.8399 3.0000 -8.4623
v 5.8399 3.0000 -7.4123
f 841 843 842
f 841 844 843
f 845 846 847
f 845 847 848
f 841 842 846
f 841 846 845
f 844 848 847
f 844 847 843
f 841 845 848
f 841 848 844
f 842 843 847
f 842 847 846

o door_opn_873cdeaa32
v 5.7624 0.0000 -7.4123
v 5.7624 0.0000 -8.4623
v 5.7624 2.1000 -8.4623
v 5.7624 2.1000 -7.4123
v 5.8024 0.0000 -7.4123
v 5.8024 0.0000 -8.4623
v 5.8024 2.1000 -8.4623
v 5.8024 2.1000 -7.4123
f 849 851 850
f 849 852 851
f 853 854 855
f 853 855 856
f 849 850 854
f 849 854 853
f 852 856 855
f 852 855 851
f 849 853 856
f 849 856 852
f 850 851 855
f 850 855 854

o wall_wal_0ba08eb228_107
v 5.7249 2.1000 -7.5623
v 5.7249 2.1000 -8.3123
v 5.7249 3.0000 -8.3123
v 5.7249 3.0000 -7.5623
v 5.8399 2.1000 -7.5623
v 5.8399 2.1000 -8.3123
v 5.8399 3.0000 -8.3123
v 5.8399 3.0000 -7.5623
f 857 859 858
f 857 860 859
f 861 862 863
f 861 863 864
f 857 858 862
f 857 862 861
f 860 864 863
f 860 863 859
f 857 861 864
f 857 864 860
f 858 859 863
f 858 863 862

o door_opn_9c2e628366
v 5.7624 0.0000 -7.5623
v 5.7624 0.0000 -8.3123
v 5.7624 2.1000 -8.3123
v 5.7624 2.1000 -7.5623
v 5.8024 0.0000 -7.5623
v 5.8024 0.0000 -8.3123
v 5.8024 2.1000 -8.3123
v 5.8024 2.1000 -7.5623
f 865 867 866
f 865 868 867
f 869 870 871
f 869 871 872
f 865 866 870
f 865 870 869
f 868 872 871
f 868 871 867
f 865 869 872
f 865 872 868
f 866 867 871
f 866 871 870

o wall_wal_0ba08eb228_109
v 5.7249 0.0000 -6.6461
v 5.7249 0.0000 -7.5623
v 5.7249 3.0000 -7.5623
v 5.7249 3.0000 -6.6461
v 5.8399 0.0000 -6.6461
v 5.8399 0.0000 -7.5623
v 5.8399 3.0000 -7.5623
v 5.8399 3.0000 -6.6461
f 873 875 874
f 873 876 875
f 877 878 879
f 877 879 880
f 873 874 878
f 873 878 877
f 876 880 879
f 876 879 875
f 873 877 880
f 873 880 876
f 874 875 879
f 874 879 878

o wall_wal_ebad246835_110
v 8.4328 0.0000 -1.8590
v 9.0130 0.0000 -1.8590
v 9.0130 3.0000 -1.8590
v 8.4328 3.0000 -1.8590
v 8.4328 0.0000 -1.6290
v 9.0130 0.0000 -1.6290
v 9.0130 3.0000 -1.6290
v 8.4328 3.0000 -1.6290
f 881 883 882
f 881 884 883
f 885 886 887
f 885 887 888
f 881 882 886
f 881 886 885
f 884 888 887
f 884 887 883
f 881 885 888
f 881 888 884
f 882 883 887
f 882 887 886

o wall_wal_ebad246835_111
v 9.0130 0.0000 -1.8590
v 9.8850 0.0000 -1.8590
v 9.8850 1.8000 -1.8590
v 9.0130 1.8000 -1.8590
v 9.0130 0.0000 -1.6290
v 9.8850 0.0000 -1.6290
v 9.8850 1.8000 -1.6290
v 9.0130 1.8000 -1.6290
f 889 891 890
f 889 892 891
f 893 894 895
f 893 895 896
f 889 890 894
f 889 894 893
f 892 896 895
f 892 895 891
f 889 893 896
f 889 896 892
f 890 891 895
f 890 895 894

o wall_wal_ebad246835_112
v 9.0130 2.5500 -1.8590
v 9.8850 2.5500 -1.8590
v 9.8850 3.0000 -1.8590
v 9.0130 3.0000 -1.8590
v 9.0130 2.5500 -1.6290
v 9.8850 2.5500 -1.6290
v 9.8850 3.0000 -1.6290
v 9.0130 3.0000 -1.6290
f 897 899 898
f 897 900 899
f 901 902 903
f 901 903 904
f 897 898 902
f 897 902 901
f 900 904 903
f 900 903 899
f 897 901 904
f 897 904 900
f 898 899 903
f 898 903 902

o glazing_opn_7d8d3daf5f
v 9.0130 1.8000 -1.7640
v 9.8850 1.8000 -1.7640
v 9.8850 2.5500 -1.7640
v 9.0130 2.5500 -1.7640
v 9.0130 1.8000 -1.7240
v 9.8850 1.8000 -1.7240
v 9.8850 2.5500 -1.7240
v 9.0130 2.5500 -1.7240
f 905 907 906
f 905 908 907
f 909 910 911
f 909 911 912
f 905 906 910
f 905 910 909
f 908 912 911
f 908 911 907
f 905 909 912
f 905 912 908
f 906 907 911
f 906 911 910

o wall_wal_ebad246835_114
v 9.8850 0.0000 -1.8590
v 10.4653 0.0000 -1.8590
v 10.4653 3.0000 -1.8590
v 9.8850 3.0000 -1.8590
v 9.8850 0.0000 -1.6290
v 10.4653 0.0000 -1.6290
v 10.4653 3.0000 -1.6290
v 9.8850 3.0000 -1.6290
f 913 915 914
f 913 916 915
f 917 918 919
f 917 919 920
f 913 914 918
f 913 918 917
f 916 920 919
f 916 919 915
f 913 917 920
f 913 920 916
f 914 915 919
f 914 919 918

o wall_wal_4a964c7b6a_115
v 10.5803 0.0000 -2.4660
v 10.5803 0.0000 -1.7440
v 10.5803 3.0000 -1.7440
v 10.5803 3.0000 -2.4660
v 10.3503 0.0000 -2.4660
v 10.3503 0.0000 -1.7440
v 10.3503 3.0000 -1.7440
v 10.3503 3.0000 -2.4660
f 921 923 922
f 921 924 923
f 925 926 927
f 925 927 928
f 921 922 926
f 921 926 925
f 924 928 927
f 924 927 923
f 921 925 928
f 921 928 924
f 922 923 927
f 922 927 926

o wall_wal_4a964c7b6a_116
v 10.5803 0.0000 -3.3380
v 10.5803 0.0000 -2.4660
v 10.5803 1.8000 -2.4660
v 10.5803 1.8000 -3.3380
v 10.3503 0.0000 -3.3380
v 10.3503 0.0000 -2.4660
v 10.3503 1.8000 -2.4660
v 10.3503 1.8000 -3.3380
f 929 931 930
f 929 932 931
f 933 934 935
f 933 935 936
f 929 930 934
f 929 934 933
f 932 936 935
f 932 935 931
f 929 933 936
f 929 936 932
f 930 931 935
f 930 935 934

o wall_wal_4a964c7b6a_117
v 10.5803 2.5500 -3.3380
v 10.5803 2.5500 -2.4660
v 10.5803 3.0000 -2.4660
v 10.5803 3.0000 -3.3380
v 10.3503 2.5500 -3.3380
v 10.3503 2.5500 -2.4660
v 10.3503 3.0000 -2.4660
v 10.3503 3.0000 -3.3380
f 937 939 938
f 937 940 939
f 941 942 943
f 941 943 944
f 937 938 942
f 937 942 941
f 940 944 943
f 940 943 939
f 937 941 944
f 937 944 940
f 938 939 943
f 938 943 942

o glazing_opn_bf810f4dab
v 10.4853 1.8000 -3.3380
v 10.4853 1.8000 -2.4660
v 10.4853 2.5500 -2.4660
v 10.4853 2.5500 -3.3380
v 10.4453 1.8000 -3.3380
v 10.4453 1.8000 -2.4660
v 10.4453 2.5500 -2.4660
v 10.4453 2.5500 -3.3380
f 945 947 946
f 945 948 947
f 949 950 951
f 949 951 952
f 945 946 950
f 945 950 949
f 948 952 951
f 948 951 947
f 945 949 952
f 945 952 948
f 946 947 951
f 946 951 950

o wall_wal_4a964c7b6a_119
v 10.5803 0.0000 -4.0599
v 10.5803 0.0000 -3.3380
v 10.5803 3.0000 -3.3380
v 10.5803 3.0000 -4.0599
v 10.3503 0.0000 -4.0599
v 10.3503 0.0000 -3.3380
v 10.3503 3.0000 -3.3380
v 10.3503 3.0000 -4.0599
f 953 955 954
f 953 956 955
f 957 958 959
f 957 959 960
f 953 954 958
f 953 958 957
f 956 960 959
f 956 959 955
f 953 957 960
f 953 960 956
f 954 955 959
f 954 959 958

o wall_wal_5671b5e327_120
v 8.3753 0.0000 -3.4270
v 8.3753 0.0000 -4.0599
v 8.3753 3.0000 -4.0599
v 8.3753 3.0000 -3.4270
v 8.4903 0.0000 -3.4270
v 8.4903 0.0000 -4.0599
v 8.4903 3.0000 -4.0599
v 8.4903 3.0000 -3.4270
f 961 963 962
f 961 964 963
f 965 966 967
f 965 967 968
f 961 962 966
f 961 966 965
f 964 968 967
f 964 967 963
f 961 965 968
f 961 968 964
f 962 963 967
f 962 967 966

o wall_wal_5671b5e327_121
v 8.3753 2.1000 -2.3770
v 8.3753 2.1000 -3.4270
v 8.3753 3.0000 -3.4270
v 8.3753 3.0000 -2.3770
v 8.4903 2.1000 -2.3770
v 8.4903 2.1000 -3.4270
v 8.4903 3.0000 -3.4270
v 8.4903 3.0000 -2.3770
f 969 971 970
f 969 972 971
f 973 974 975
f 973 975 976
f 969 970 974
f 969 974 973
f 972 976 975
f 972 975 971
f 969 973 976
f 969 976 972
f 970 971 975
f 970 975 974

o door_opn_e69e28b579
v 8.4128 0.0000 -2.3770
v 8.4128 0.0000 -3.4270
v 8.4128 2.1000 -3.4270
v 8.4128 2.1000 -2.3770
v 8.4528 0.0000 -2.3770
v 8.4528 0.0000 -3.4270
v 8.4528 2.1000 -3.4270
v 8.4528 2.1000 -2.3770
f 977 979 978
f 977 980 979
f 981 982 983
f 981 983 984
f 977 978 982
f 977 982 981
f 980 984 983
f 980 983 979
f 977 981 984
f 977 984 980
f 978 979 983
f 978 983 982

o wall_wal_5671b5e327_123
v 8.3753 0.0000 -1.7440
v 8.3753 0.0000 -2.3770
v 8.3753 3.0000 -2.3770
v 8.3753 3.0000 -1.7440
v 8.4903 0.0000 -1.7440
v 8.4903 0.0000 -2.3770
v 8.4903 3.0000 -2.3770
v 8.4903 3.0000 -1.7440
f 985 987 986
f 985 988 987
f 989 990 991
f 989 991 992
f 985 986 990
f 985 990 989
f 988 992 991
f 988 991 987
f 985 989 992
f 985 992 988
f 986 987 991
f 986 991 990

o wall_wal_0770afd9d4_124
v 5.8399 0.0000 -8.4289
v 5.8399 0.0000 -5.8198
v 5.8399 3.0000 -5.8198
v 5.8399 3.0000 -8.4289
v 5.7249 0.0000 -8.4289
v 5.7249 0.0000 -5.8198
v 5.7249 3.0000 -5.8198
v 5.7249 3.0000 -8.4289
f 993 995 994
f 993 996 995
f 997 998 999
f 997 999 1000
f 993 994 998
f 993 998 997
f 996 1000 999
f 996 999 995
f 993 997 1000
f 993 1000 996
f 994 995 999
f 994 999 998

o wall_wal_7c62bb4acf_125
v 1.4197 0.0000 -8.0363
v 1.4197 0.0000 -8.4289
v 1.4197 3.0000 -8.4289
v 1.4197 3.0000 -8.0363
v 1.6497 0.0000 -8.0363
v 1.6497 0.0000 -8.4289
v 1.6497 3.0000 -8.4289
v 1.6497 3.0000 -8.0363
f 1001 1003 1002
f 1001 1004 1003
f 1005 1006 1007
f 1005 1007 1008
f 1001 1002 1006
f 1001 1006 1005
f 1004 1008 1007
f 1004 1007 1003
f 1001 1005 1008
f 1001 1008 1004
f 1002 1003 1007
f 1002 1007 1006

o wall_wal_7c62bb4acf_126
v 1.4197 0.0000 -6.2123
v 1.4197 0.0000 -8.0363
v 1.4197 0.9000 -8.0363
v 1.4197 0.9000 -6.2123
v 1.6497 0.0000 -6.2123
v 1.6497 0.0000 -8.0363
v 1.6497 0.9000 -8.0363
v 1.6497 0.9000 -6.2123
f 1009 1011 1010
f 1009 1012 1011
f 1013 1014 1015
f 1013 1015 1016
f 1009 1010 1014
f 1009 1014 1013
f 1012 1016 1015
f 1012 1015 1011
f 1009 1013 1016
f 1009 1016 1012
f 1010 1011 1015
f 1010 1015 1014

o wall_wal_7c62bb4acf_127
v 1.4197 2.2500 -6.2123
v 1.4197 2.2500 -8.0363
v 1.4197 3.0000 -8.0363
v 1.4197 3.0000 -6.2123
v 1.6497 2.2500 -6.2123
v 1.6497 2.2500 -8.0363
v 1.6497 3.0000 -8.0363
v 1.6497 3.0000 -6.2123
f 1017 1019 1018
f 1017 1020 1019
f 1021 1022 1023
f 1021 1023 1024
f 1017 1018 1022
f 1017 1022 1021
f 1020 1024 1023
f 1020 1023 1019
f 1017 1021 1024
f 1017 1024 1020
f 1018 1019 1023
f 1018 1023 1022

o glazing_opn_3e042f7707
v 1.5147 0.9000 -6.2123
v 1.5147 0.9000 -8.0363
v 1.5147 2.2500 -8.0363
v 1.5147 2.2500 -6.2123
v 1.5547 0.9000 -6.2123
v 1.5547 0.9000 -8.0363
v 1.5547 2.2500 -8.0363
v 1.5547 2.2500 -6.2123
f 1025 1027 1026
f 1025 1028 1027
f 1029 1030 1031
f 1029 1031 1032
f 1025 1026 1030
f 1025 1030 1029
f 1028 1032 1031
f 1028 1031 1027
f 1025 1029 1032
f 1025 1032 1028
f 1026 1027 1031
f 1026 1031 1030

o wall_wal_7c62bb4acf_129
v 1.4197 0.0000 -5.8198
v 1.4197 0.0000 -6.2123
v 1.4197 3.0000 -6.2123
v 1.4197 3.0000 -5.8198
v 1.6497 0.0000 -5.8198
v 1.6497 0.0000 -6.2123
v 1.6497 3.0000 -6.2123
v 1.6497 3.0000 -5.8198
f 1033 1035 1034
f 1033 1036 1035
f 1037 1038 1039
f 1037 1039 1040
f 1033 1034 1038
f 1033 1038 1037
f 1036 1040 1039
f 1036 1039 1035
f 1033 1037 1040
f 1033 1040 1036
f 1034 1035 1039
f 1034 1039 1038

o roof_slab
v 1.5347 3.1500 -1.7440
v 10.4653 3.1500 -1.7440
v 10.4653 3.1500 -16.2560
v 1.5347 3.1500 -16.2560
v 1.5347 3.3000 -1.7440
v 10.4653 3.3000 -1.7440
v 10.4653 3.3000 -16.2560
v 1.5347 3.3000 -16.2560
f 1041 1043 1042
f 1045 1046 1047
f 1041 1044 1043
f 1045 1047 1048
f 1041 1042 1046
f 1041 1046 1045
f 1042 1043 1047
f 1042 1047 1046
f 1043 1044 1048
f 1043 1048 1047
f 1044 1041 1045
f 1044 1045 1048

o parapet_0
v 1.5347 3.3000 -1.8015
v 10.4653 3.3000 -1.8015
v 10.4653 4.2000 -1.8015
v 1.5347 4.2000 -1.8015
v 1.5347 3.3000 -1.6865
v 10.4653 3.3000 -1.6865
v 10.4653 4.2000 -1.6865
v 1.5347 4.2000 -1.6865
f 1049 1051 1050
f 1049 1052 1051
f 1053 1054 1055
f 1053 1055 1056
f 1049 1050 1054
f 1049 1054 1053
f 1052 1056 1055
f 1052 1055 1051
f 1049 1053 1056
f 1049 1056 1052
f 1050 1051 1055
f 1050 1055 1054

o parapet_1
v 10.5228 3.3000 -16.2560
v 10.5228 3.3000 -1.7440
v 10.5228 4.2000 -1.7440
v 10.5228 4.2000 -16.2560
v 10.4078 3.3000 -16.2560
v 10.4078 3.3000 -1.7440
v 10.4078 4.2000 -1.7440
v 10.4078 4.2000 -16.2560
f 1057 1059 1058
f 1057 1060 1059
f 1061 1062 1063
f 1061 1063 1064
f 1057 1058 1062
f 1057 1062 1061
f 1060 1064 1063
f 1060 1063 1059
f 1057 1061 1064
f 1057 1064 1060
f 1058 1059 1063
f 1058 1063 1062

o parapet_2
v 10.4653 3.3000 -16.1985
v 1.5347 3.3000 -16.1985
v 1.5347 4.2000 -16.1985
v 10.4653 4.2000 -16.1985
v 10.4653 3.3000 -16.3135
v 1.5347 3.3000 -16.3135
v 1.5347 4.2000 -16.3135
v 10.4653 4.2000 -16.3135
f 1065 1067 1066
f 1065 1068 1067
f 1069 1070 1071
f 1069 1071 1072
f 1065 1066 1070
f 1065 1070 1069
f 1068 1072 1071
f 1068 1071 1067
f 1065 1069 1072
f 1065 1072 1068
f 1066 1067 1071
f 1066 1071 1070

o parapet_3
v 1.4772 3.3000 -1.7440
v 1.4772 3.3000 -16.2560
v 1.4772 4.2000 -16.2560
v 1.4772 4.2000 -1.7440
v 1.5922 3.3000 -1.7440
v 1.5922 3.3000 -16.2560
v 1.5922 4.2000 -16.2560
v 1.5922 4.2000 -1.7440
f 1073 1075 1074
f 1073 1076 1075
f 1077 1078 1079
f 1077 1079 1080
f 1073 1074 1078
f 1073 1078 1077
f 1076 1080 1079
f 1076 1079 1075
f 1073 1077 1080
f 1073 1080 1076
f 1074 1075 1079
f 1074 1079 1078
